<?xml version="1.0" encoding="UTF-8"?>
<svg width="600px" height="600px" viewBox="0 0 600 600" version="1.1" xmlns="http://www.w3.org/2000/svg" xmlns:xlink="http://www.w3.org/1999/xlink">
    <title>Artboard</title>
    <g id="Artboard" stroke="none" stroke-width="1" fill="none" fill-rule="evenodd">
        <polygon id="Path" fill="#023399" points="88.4969866 231.455294 56.254318 231.455294 38.5729122 249.136699 38.5729122 350.181389 56.254318 367.862794 88.4969866 367.862794 88.4969866 336.898825 77.2442232 316.182098 138.047462 316.182098 138.047462 336.898825 95.5400659 367.862794 171.263447 367.862794 188.944853 350.181389 188.944853 249.136699 171.263447 231.455294 138.047462 231.455294 138.047462 264.778439 149.591556 277.856612 88.4969866 277.856612"></polygon>
        <polygon id="Path-2" fill="#023399" points="198.750281 231.455294 198.750281 351.052602 215.560474 367.862794 247.518632 367.862794 247.518632 304.390355 344.747268 304.390355 344.747268 249.035301 327.167261 231.455294 212.321306 231.455294 247.518632 268.5 337.853179 268.5 337.853179 279.590701 247.518632 279.590701"></polygon>
        <polygon id="Path-3" fill="#023399" points="344.747268 312.767321 318.355795 312.767321 301 330.123115 255.884167 330.123115 255.884167 367.862794 344.747268 367.862794"></polygon>
        <polygon id="Path-4" fill="#FE6602" points="357.807856 231.455294 407.203736 231.455294 407.203736 317.307433 357.807856 363.48241"></polygon>
        <polygon id="Path-5" fill="#023399" points="450.280696 235.918184 536.21363 235.918184 561.188316 255.89287 561.188316 263.611138 450.280696 263.611138"></polygon>
        <polygon id="Path-6" fill="#023399" points="511.849558 268.5 561.188316 268.5 561.188316 367.862794 530.254606 367.862794 511.849558 352.129122"></polygon>
        <polygon id="Path-7" fill="#023399" points="505.734506 312.767321 463.306732 312.767321 450.280696 325.793357 410.143081 325.793357 372.454028 365.48241 487.98226 365.48241 505.734506 349.730163"></polygon>
    </g>
</svg>